<?xml version="1.0" standalone="no"?><!DOCTYPE svg PUBLIC "-//W3C//DTD SVG 1.1//EN" "http://www.w3.org/Graphics/SVG/1.1/DTD/svg11.dtd"><svg t="1481795351942" class="icon" style="" viewBox="0 0 1024 1024" version="1.1" xmlns="http://www.w3.org/2000/svg" p-id="983" xmlns:xlink="http://www.w3.org/1999/xlink" width="100" height="100"><defs><style type="text/css"></style></defs><path d="M957.217391 964.741565C957.217391 997.465043 930.994087 1024 898.626783 1024 891.013565 1024 883.801043 1022.397217 877.078261 1019.725913L876.677565 1020.082087 512 858.156522 143.716174 1021.551304 143.048348 1020.972522C137.438609 1022.753391 131.561739 1024 125.373217 1024 93.005913 1024 66.782609 997.465043 66.782609 964.741565 66.782609 961.046261 67.183304 957.44 67.895652 953.878261L66.782609 952.898783 66.782609 71.101217C66.782609 24.576 92.204522 0 137.082435 0L886.917565 0C924.315826 0 957.217391 23.017739 957.217391 71.101217L957.217391 952.898783 956.14887 953.789217C956.772174 957.350957 957.217391 961.001739 957.217391 964.741565L957.217391 964.741565ZM596.813913 350.786783 510.842435 201.505391 426.696348 351.721739 250.212174 383.020522 375.05113 505.232696 351.98887 673.836522 513.29113 599.173565 675.528348 672.055652 650.373565 503.718957 773.698783 380.126609 596.813913 350.786783 596.813913 350.786783Z" p-id="984" fill="#E74C3C"></path></svg>