<?xml version="1.0" standalone="no"?><!DOCTYPE svg PUBLIC "-//W3C//DTD SVG 1.1//EN" "http://www.w3.org/Graphics/SVG/1.1/DTD/svg11.dtd"><svg t="1481796023245" class="icon" style="" viewBox="0 0 1024 1024" version="1.1" xmlns="http://www.w3.org/2000/svg" p-id="5700" xmlns:xlink="http://www.w3.org/1999/xlink" width="100" height="100"><defs><style type="text/css"></style></defs><path d="M903.026396 510.994976 468.357456 945.663915C441.820504 972.200867 398.439279 971.844317 372.179706 945.584744L82.262044 655.667082C55.68143 629.086468 56.129122 585.543083 82.182873 559.489332L516.851812 124.820392C623.490738 18.181467 796.386988 18.181467 903.026155 124.820634 1009.665321 231.4598 1009.665321 404.35605 903.026396 510.994976ZM613.395458 414.45133C666.715042 467.770913 753.163143 467.770937 806.48275 414.45133 859.801875 361.132205 859.802092 274.683863 806.482509 221.364279 753.162925 168.044696 666.714583 168.044913 613.395458 221.364038 560.075851 274.683645 560.075875 361.131746 613.395458 414.45133Z" p-id="5701" fill="#E74C3C"></path></svg>