<?xml version="1.0" standalone="no"?><!DOCTYPE svg PUBLIC "-//W3C//DTD SVG 1.1//EN" "http://www.w3.org/Graphics/SVG/1.1/DTD/svg11.dtd"><svg t="1481796058832" class="icon" style="" viewBox="0 0 1024 1024" version="1.1" xmlns="http://www.w3.org/2000/svg" p-id="6682" xmlns:xlink="http://www.w3.org/1999/xlink" width="100" height="100"><defs><style type="text/css"></style></defs><path d="M240.499641 689.275935c5.372192 10.13042 11.665332 17.446835 18.828255 22.051571 13.55839 8.49318 30.39126 8.083871 50.396282-1.176766 8.953654-4.144263 16.525887-9.260637 22.665536-15.349121 11.869987-11.818823 14.735156-24.353939 8.544344-37.656511-4.604736-9.976929-10.94904-15.707267-18.930583-17.139852-8.032707-1.330257-19.339893-0.511637-33.819231 2.507023l-26.656307 5.525684c-17.446835 3.632625-30.442424 4.758228-38.986768 3.325643-14.837484-2.404696-25.786524-11.204859-32.84712-26.451652-7.623397-16.474724-8.339689-32.540137-2.148877-48.298568 6.190812-15.707267 19.493384-28.242383 39.805388-37.707675 18.725928-8.646672 36.735564-11.35835 54.131234-8.135034 17.344507 3.223315 30.749406 14.990975 40.214698 35.405306l-23.330664 10.846712c-5.730339-9.260637-11.818823-15.60494-18.163127-19.084074-11.665332-6.190812-26.246997-5.269865-43.591505 2.762842-14.070028 6.497795-22.767863 14.274683-25.991179 23.279501-3.325643 9.004818-3.018661 17.600326 0.716292 25.73536 4.144263 9.004818 10.846712 13.865373 20.005021 14.683993 5.986157 0.460474 18.265454-1.176766 36.940219-4.962883l27.628418-5.679175c13.353736-2.711678 24.405103-3.172152 33.205266-1.22793 15.246794 3.325643 26.656307 13.200244 34.177377 29.470313 9.414128 20.312004 8.953654 38.168148-1.381421 53.568433s-25.070231 27.526091-44.154306 36.377418c-22.205062 10.283911-42.363575 12.535116-60.322047 6.70245-17.958472-5.730339-31.414535-18.572437-40.317025-38.526294L240.499641 689.275935z" p-id="6683" fill="#E74C3C"></path><path d="M390.767539 468.811389l28.037728-12.995589 151.495827 152.519102-27.219108 12.586279-44.563616-46.047364-71.936215 33.307593 5.576847 64.159327L406.679461 684.159561 390.767539 468.811389zM482.094811 557.989784 416.298244 489.993177l8.186198 94.601751L482.094811 557.989784z" p-id="6684" fill="#E74C3C"></path><path d="M507.779007 414.628991l24.865577-11.511841 74.750221 161.52392 91.9924-42.619394 10.13042 21.846916L592.710812 597.999827 507.779007 414.628991z" p-id="6685" fill="#E74C3C"></path><path d="M652.36773 347.706822l133.025718-61.652304 10.386239 22.460881-108.82527 50.396282 25.786524 55.666147 100.587908-46.610165 9.823438 21.232951-100.587908 46.610165 28.754021 62.112778 110.718328-51.317229 10.13042 21.846916-134.918776 62.522087L652.36773 347.706822z" p-id="6686" fill="#E74C3C"></path><path d="M677.233306 1023.989107c-15.246794 0-30.493588-3.172152-44.972925-9.414128l-91.480763-39.754224c-18.316618-7.930379-39.293751-7.930379-57.559205 0l-91.480763 39.754224c-28.344711 12.279297-59.708082 12.586279-88.206284 0.767456s-50.498609-34.177377-61.805795-62.931397l-36.582072-92.81102c-7.316414-18.572437-22.153898-33.409921-40.726335-40.726335l-92.81102-36.582072c-28.754021-11.307186-51.06141-33.25643-62.931397-61.805795-11.818823-28.549366-11.563005-59.861573 0.767456-88.206284l39.754224-91.480763c7.930379-18.265454 7.930379-39.293751 0-57.559205l-39.754224-91.480763c-12.279297-28.344711-12.586279-59.656918-0.767456-88.206284 11.818823-28.549366 34.177377-50.498609 62.931397-61.856959l92.81102-36.582072c18.572437-7.316414 33.358757-22.153898 40.675171-40.726335L241.676407 71.627294c11.307186-28.754021 33.25643-51.06141 61.805795-62.931397 28.549366-11.869987 59.861573-11.563005 88.206284 0.767456L483.220413 49.217577c18.265454 7.930379 39.293751 7.930379 57.559205 0l91.480763-39.754224c28.344711-12.279297 59.708082-12.586279 88.206284-0.767456s50.498609 34.177377 61.805795 62.931397l36.582072 92.81102c7.316414 18.572437 22.153898 33.358757 40.726335 40.675171l92.81102 36.582072c28.754021 11.307186 51.112574 33.307593 62.931397 61.856959 11.818823 28.549366 11.563005 59.861573-0.767456 88.206284l-39.754224 91.480763c-7.930379 18.265454-7.930379 39.293751 0 57.559205l39.754224 91.480763c12.279297 28.344711 12.586279 59.656918 0.767456 88.206284-11.818823 28.549366-34.177377 50.498609-62.931397 61.805795l-92.81102 36.582072c-18.572437 7.316414-33.409921 22.153898-40.726335 40.726335l-36.582072 92.81102c-11.307186 28.754021-33.25643 51.06141-61.805795 62.931397C706.498964 1021.123938 691.866135 1023.989107 677.233306 1023.989107zM511.974433 928.159427c15.349121 0 30.698243 3.120988 44.972925 9.3118l91.480763 39.754224c18.111963 7.879216 38.168148 8.083871 56.433603 0.460474 18.265454-7.572233 32.284318-21.846916 39.549569-40.214698l36.582072-92.81102c11.409514-29.009839 34.63785-52.238176 63.64769-63.64769l92.81102-36.582072c18.367782-7.265251 32.642465-21.284115 40.214698-39.549569 7.572233-18.265454 7.418742-38.32164-0.460474-56.433603l-39.754224-91.480763c-12.432788-28.600529-12.432788-61.396485 0-89.997015l39.754224-91.480763c7.879216-18.111963 8.032707-38.168148 0.511637-56.382439-7.572233-18.265454-21.846916-32.335482-40.265862-39.549569l-92.81102-36.582072c-29.009839-11.409514-52.238176-34.586687-63.64769-63.64769L744.411294 86.567105c-7.265251-18.367782-21.284115-32.642465-39.549569-40.214698-18.265454-7.572233-38.270476-7.418742-56.433603 0.460474L556.998523 86.567105c-28.600529 12.432788-61.396485 12.432788-89.997015 0l-91.480763-39.754224c-18.111963-7.879216-38.168148-8.032707-56.433603-0.460474C300.821688 53.873477 286.802824 68.14816 279.537573 86.567105l-36.582072 92.81102c-11.409514 29.009839-34.63785 52.238176-63.64769 63.64769l-92.81102 36.582072c-18.367782 7.265251-32.693628 21.284115-40.265862 39.549569-7.572233 18.265454-7.367578 38.270476 0.511637 56.433603l39.754224 91.480763c12.432788 28.600529 12.432788 61.396485 0 89.997015L46.742567 648.498436c-7.879216 18.111963-8.032707 38.168148-0.460474 56.433603 7.572233 18.265454 21.846916 32.284318 40.214698 39.549569l92.81102 36.582072c29.009839 11.409514 52.187012 34.63785 63.64769 63.64769l36.582072 92.81102c7.265251 18.367782 21.284115 32.642465 39.549569 40.214698 18.265454 7.572233 38.270476 7.418742 56.433603-0.460474l91.480763-39.754224C481.276191 931.280415 496.625312 928.159427 511.974433 928.159427z" p-id="6687" fill="#E74C3C"></path></svg>