<?xml version="1.0" standalone="no"?><!DOCTYPE svg PUBLIC "-//W3C//DTD SVG 1.1//EN" "http://www.w3.org/Graphics/SVG/1.1/DTD/svg11.dtd"><svg t="1481796001668" class="icon" style="" viewBox="0 0 1024 1024" version="1.1" xmlns="http://www.w3.org/2000/svg" p-id="5526" xmlns:xlink="http://www.w3.org/1999/xlink" width="100" height="100"><defs><style type="text/css"></style></defs><path d="M731.978599 239.83739" p-id="5527" fill="#E74C3C"></path><path d="M486.828202 572.276828 449.742563 554.188868 467.830523 591.273485Z" p-id="5528" fill="#E74C3C"></path><path d="M941.021635 83.544765c-10.641361-10.624988-24.787546-16.477276-39.829124-16.477276 0.005117 0-256.469186 0.049119-292.063869 0.049119-41.594327 0-71.536266 5.846148-101.488439 35.736922C463.14685 147.359162 85.340155 524.839423 81.52834 528.645099c-10.637268 10.610662-16.488533 24.695448-16.488533 39.664372-0.005117 15.005762 5.851265 29.118178 16.488533 39.73805l334.297762 333.977467c10.635221 10.652618 24.775266 16.504906 39.817867 16.504906 15.052834 0 29.209252-5.862521 39.86187-16.504906 4.03285-4.02671 403.332045-402.930909 426.204985-425.682076 29.568433-29.616528 35.666314-64.777329 35.706223-108.434641 0-42.260499 0.076748-284.633642 0.076748-284.633642C957.510168 108.260679 951.65788 94.15952 941.021635 83.544765zM430.374446 715.791429c-3.273557 15.396665-12.992919 31.172977-29.155017 47.335075-20.99722 20.998243-48.084135 29.9051-81.259722 26.722618l6.391571-38.600133c25.289989 3.626597 43.016723 0.357134 53.18327-9.809413 6.163373-6.16235 9.670244-12.325723 10.510378-18.485003 0.61296-5.714142-0.245593-9.742898-2.583848-12.0832-6.698562-6.698562-26.477025-6.478552-59.335387 0.654916-39.654138 9.674337-64.314795 9.677407-73.989131 0-8.504698-8.502651-12.007475-19.669992-10.507308-33.502022 2.466168-15.861246 11.338233-31.320333 26.608008-46.38033 19.768229-19.554358 45.910633-28.578896 78.414931-27.070542l-5.572926 38.421055c-24.941042-2.27174-41.993416 1.172709-51.1561 10.335393-3.892657 4.106528-6.323009 8.347109-7.287987 12.70844-0.964978 4.370541 0.201591 8.200776 3.495614 11.493775 4.678556 4.677533 24.75787 3.096525 60.241013-4.749164 37.774325-8.219195 62.136176-6.852058 73.083505 4.095271C430.916798 686.339654 433.889503 699.312106 430.374446 715.791429zM557.944913 606.40102l-41.933041-19.937075-33.995255 33.995255 20.437471 41.434691-33.995255 33.995255-84.736916-174.225043 33.995255-33.994232 174.222997 84.735893L557.944913 606.40102zM607.938538 556.409442 478.458581 426.927439l33.995255-33.994232L620.247888 500.727259l65.989947-65.99097 21.684882 21.685905L607.938538 556.409442zM735.919351 428.427606 606.439394 298.947649l97.734952-97.735975 21.686928 21.685905-63.74072 63.74072 35.078936 35.07996 40.74396-40.742936 21.686928 21.686928-40.74396 40.742936 29.341259 29.340235 63.739696-63.74072 21.685905 21.685905L735.919351 428.427606zM873.363699 216.432331c-8.444323 8.425903-19.660782 13.066597-31.585369 13.066597-11.92561 0-23.14207-4.640694-31.574113-13.051247-8.419763-8.41874-13.050224-19.61064-13.046131-31.513738 0.004093-11.910261 4.656043-23.115464 13.101389-31.552623 8.414647-8.41874 19.620873-13.056364 31.547507-13.056364 11.933797 0 23.146163 4.641717 31.576159 13.06455C890.758881 170.742732 890.736369 199.033056 873.363699 216.432331z" p-id="5529" fill="#E74C3C"></path></svg>