<?xml version="1.0" standalone="no"?><!DOCTYPE svg PUBLIC "-//W3C//DTD SVG 1.1//EN" "http://www.w3.org/Graphics/SVG/1.1/DTD/svg11.dtd"><svg t="1481796045111" class="icon" style="" viewBox="0 0 1024 1024" version="1.1" xmlns="http://www.w3.org/2000/svg" p-id="6460" xmlns:xlink="http://www.w3.org/1999/xlink" width="100" height="100"><defs><style type="text/css"></style></defs><path d="M290.555515 789.105179c10.125615 10.136871 26.554796 10.136871 36.679387 0l58.256822-58.276265 55.042617 55.030337c10.136871 10.136871 26.553773 10.136871 36.667108 0 10.136871-10.136871 10.136871-26.553773 0-36.690644l-55.030337-55.006801 48.035016-48.03604 55.030337 55.010895c10.137895 10.132778 26.550703 10.132778 36.687574 0 10.113335-10.113335 10.113335-26.553773 0-36.686551l-24.711821-24.691355 82.364893 0c14.314007 0 25.922393-11.608386 25.922393-25.922393 0-14.34266-11.608386-25.946952-25.922393-25.946952L489.653039 587.889411l0-126.661771c0-14.33038-11.608386-25.938766-25.922393-25.938766-14.3181 0-25.946952 11.608386-25.946952 25.938766l0 79.113849-22.588461-22.600741c-10.136871-10.136871-26.561959-10.136871-36.686551 0-10.125615 10.125615-10.125615 26.538423 0 36.675294l55.009871 55.023174-48.02683 48.035016-55.019081-55.030337c-10.124592-10.125615-26.553773-10.125615-36.679387 0-10.132778 10.136871-10.132778 26.549679 0 36.686551l55.023174 55.031361-58.260915 58.259892C280.422737 762.555499 280.422737 778.972401 290.555515 789.105179z" p-id="6461" fill="#E74C3C"></path><path d="M660.484799 462.926328c27.245528 0 49.338708-22.089088 49.338708-49.358151 0-27.253714-22.093181-49.342802-49.338708-49.342802-27.26497 0-49.354058 22.089088-49.354058 49.342802C611.130741 440.83724 633.219829 462.926328 660.484799 462.926328z" p-id="6462" fill="#E74C3C"></path><path d="M505.96454 58.024531c-247.89695 0-448.857914 200.960964-448.857914 448.857914 0 36.412304 4.340865 71.809489 12.524245 105.70753 4.327562-7.284917 9.622148-14.156418 15.888875-20.424168l285.866726-285.866726c1.159406-1.158383 2.889817-0.843204 4.199649-1.734504 3.581572-2.814092 7.838525-4.608971 12.591783-5.216815 0.759293-0.044002 1.323135-0.434905 2.078335-0.423649 0.379647-0.011256 0.704035-0.215918 1.083681-0.215918l207.727065 0c0 0 170.919764-5.435803 183.415356 183.4041-0.151449 0.132006-0.323365 0.239454-0.455371 0.347924l0 206.91149c0 6.519484-2.642177 12.279674-6.583952 16.82827-1.038656 1.666966-0.735757 3.793396-2.166339 5.240351l-243.704464 243.687068c236.923014-12.277628 425.249217-208.267371 425.249217-448.244954C954.822454 258.985496 753.86149 58.024531 505.96454 58.024531z" p-id="6463" fill="#E74C3C"></path></svg>