<?xml version="1.0" standalone="no"?><!DOCTYPE svg PUBLIC "-//W3C//DTD SVG 1.1//EN" "http://www.w3.org/Graphics/SVG/1.1/DTD/svg11.dtd"><svg t="1481796067611" class="icon" style="" viewBox="0 0 1024 1024" version="1.1" xmlns="http://www.w3.org/2000/svg" p-id="6858" xmlns:xlink="http://www.w3.org/1999/xlink" width="100" height="100"><defs><style type="text/css"></style></defs><path d="M498.654341 309.481021 933.380531 109.843742 933.380531 90.619469c0-66.487504-23.161042-90.619469-89.648546-90.619469l-601.972187 0c-66.487504 0-151.140329 24.131965-151.140329 90.619469l0 31.451429L498.654341 309.481021z" p-id="6859" fill="#E74C3C"></path><path d="M539.130174 430.433416c-7.995226 3.675267-8.831515 5.496718-17.415767 5.496718-8.581664 0-28.665527-1.821451-36.659459-5.496718L90.619469 254.573391 90.619469 873.183312c0 66.487504 84.652824 150.816688 151.140329 150.816688l601.972187 0c66.487504 0 89.648546-84.329183 89.648546-150.816688L933.380531 242.346235 539.130174 430.433416z" p-id="6860" fill="#E74C3C"></path></svg>