<?xml version="1.0" standalone="no"?><!DOCTYPE svg PUBLIC "-//W3C//DTD SVG 1.1//EN" "http://www.w3.org/Graphics/SVG/1.1/DTD/svg11.dtd"><svg t="1481796095879" class="icon" style="" viewBox="0 0 1024 1024" version="1.1" xmlns="http://www.w3.org/2000/svg" p-id="8291" xmlns:xlink="http://www.w3.org/1999/xlink" width="100" height="100"><defs><style type="text/css"></style></defs><path d="M515.066337 35.630499c-262.99174 0-476.184283 213.193567-476.184283 476.18326S252.074597 987.997018 515.066337 987.997018c262.987646 0 476.182236-213.193567 476.182236-476.18326S778.053983 35.630499 515.066337 35.630499zM480.740554 798.738583l-118.314663 0c-25.550932 0-44.464701-5.875824-56.618509-17.625426-12.153808-11.738345-18.2302-28.324092-18.2302-49.718355L287.577183 708.744943l0-32.725332 0-38.384216 0-40.895409L287.577183 493.521137l193.164395 0.016373L480.741577 798.738583zM480.740554 460.174658 298.863227 460.174658c-12.960173 0-21.702278-2.512217-26.106588-7.534604-4.403287-5.054109-6.573719-12.806677-6.573719-23.316032l0-55.360865c0-9.657964 1.985214-16.680914 5.953595-21.084201 3.967358-4.40124 12.712533-6.603395 26.108634-6.603395l182.495404 0L480.740554 460.174658zM502.200308 302.216089c-2.977821 2.108011-7.195889 3.162016-12.654204 3.162016l-84.953857 0c-5.889127 0-10.355859-1.363044-13.515828-4.093225-3.166109-2.728134-5.332449-6.182816-6.574742-10.400884-1.240247-4.185322-1.922792-8.898671-1.922792-14.140045 0-5.254677 0.435928-10.183943 1.301645-14.788821 0.37453-4.621251 1.242294-9.657964 2.481518-15.116279 1.302669-5.456269 3.037173-10.06217 5.331425-13.84431 2.357697-3.765767 5.39794-6.29231 9.179057-7.53358 3.721765-1.270946 8.371668-0.233314 13.831007 3.13234 6.261611 3.78214 13.393032 7.874341 21.393239 12.278651 7.93574 4.418636 15.687284 8.820899 23.251563 13.208836 7.566326 4.417613 14.57495 8.402367 21.084201 11.967566 6.511297 3.549849 11.472286 6.402827 14.821567 8.480138 4.155646 2.945075 7.315616 6.200212 9.425673 9.767458 2.109034 3.564175 2.915399 6.913457 2.540869 10.061147C506.78779 297.487392 505.114684 300.107055 502.200308 302.216089zM525.451872 301.580616c-2.913353-2.092661-4.650927-4.696975-5.021364-7.860015-0.434905-3.133364 0.370437-6.496971 2.480494-10.061147 2.109034-3.550873 5.456269-6.807033 10.106172-9.751085 2.915399-2.092661 7.626701-4.929266 14.140045-8.481162 6.446829-3.581572 13.640672-7.581676 21.393239-11.982916 7.812943-4.387937 15.627932-8.807596 23.563672-13.208836 7.997138-4.40431 15.130605-8.497535 21.393239-12.263301 5.455245-2.929726 10.106172-3.78214 13.887288-2.512217 3.784186 1.255597 6.823406 3.767813 9.116635 7.53358 2.295276 3.78214 3.970428 8.295943 5.02341 13.550621 1.052982 5.223978 1.985214 10.154267 2.854001 14.789844 0.432859 4.588505 0.621147 9.534144 0.621147 14.773472 0 5.255701-0.621147 9.952676-1.863441 14.154371-1.302669 4.216022-3.469008 7.658424-6.635117 10.386558-3.163039 2.728134-7.626701 4.109598-13.515828 4.109598L538.661731 304.757982C532.769534 304.759005 528.367271 303.703977 525.451872 301.580616zM741.933321 729.533408c-0.435928 21.363564-6.513344 38.247092-18.292622 50.647517-11.719926 12.371772-30.387078 18.557658-55.998385 18.557658l-118.314663 0L549.327652 493.536486l192.605669 0L741.933321 729.533408zM763.948731 430.610318c0 10.044774-2.234901 17.501606-6.575766 22.322401-4.464685 4.838192-13.145391 7.240915-26.105564 7.240915L549.327652 460.173634 549.327652 346.275561l180.01491 0c13.397125 0 22.51069 2.619664 27.408233 7.874341 4.77884 5.240351 7.196912 12.682857 7.196912 22.324448L763.947707 430.610318z" p-id="8292" fill="#E74C3C"></path></svg>