<?xml version="1.0" standalone="no"?><!DOCTYPE svg PUBLIC "-//W3C//DTD SVG 1.1//EN" "http://www.w3.org/Graphics/SVG/1.1/DTD/svg11.dtd"><svg t="1481796268042" class="icon" style="" viewBox="0 0 1024 1024" version="1.1" xmlns="http://www.w3.org/2000/svg" p-id="9719" xmlns:xlink="http://www.w3.org/1999/xlink" width="100" height="100"><defs><style type="text/css"></style></defs><path d="M511.674589 64.441685c-247.564375 0-448.208115 200.889333-448.208115 448.616414 0 64.490803 13.83203 125.647675 38.287001 181.027983l239.306294-379.926986 112.252597 70.827115c-15.872502 7.625678-29.966499 19.488867-40.032762 35.487236L236.507552 702.201923c-11.385305 17.965164-15.114233 38.3484-10.972912 56.748469 4.054339 18.431791 15.753799 34.344203 31.981389 44.450375 16.10377 10.222829 35.540448 13.845333 53.864792 9.492188 18.385742-4.205788 35.071773-16.47216 46.307675-34.46086l111.851461-178.276313c6.244214-9.927093 3.266393-23.01825-6.655584-29.206182-9.921977-6.250354-22.991644-3.272533-29.239951 6.631024L321.80217 755.855914c-6.217608 9.7869-13.219069 14.109346-20.106943 15.795754-6.887874 1.577938-14.244422 0.473791-21.652136-4.143367-7.382131-4.672416-11.555174-10.860349-13.131065-17.755386-1.488911-6.950296-0.64366-15.135722 5.455245-24.976858l176.801728-281.697777c12.724813-20.243043 36.504402-28.972868 58.537208-23.772426l258.882142 163.389254-238.19396 378.162806c239.71357-8.877181 431.486268-205.647707 431.486268-447.799816C959.882704 265.332041 759.176542 64.441685 511.674589 64.441685z" p-id="9720" fill="#E74C3C"></path></svg>